# xmcd CD database file
#
# Track frame offsets:
#	150
#	13085
#	24327
#	38566
#	53025
#	68034
#	81998
#	95395
#	114293
#	127258
#	149159
#	161068
#	181273
#	189697
#	203680
#
# Disc length: 2777 seconds
#
# Revision: 0
# Processed by: cddbd v1.5.2PL0 Copyright (c) Steve Scherf et al.
# Submitted via: CDex 2.09
#
DISCID=ce0ad70f
DTITLE=Southern Accent - Southern Accent
DYEAR=1900
DGENRE=Country
TTITLE0=Train a comin' (by Steve Earle)
TTITLE1=Hometown Blues (by Steve Earle)
TTITLE2=Big Train from Memphis (by John Fogerty)
TTITLE3=Alone and Forsaken (by Hank Williams)
TTITLE4=Orange Blossom (Traditional)
TTITLE5=Old Shoes (by Tom Waits)
TTITLE6=If You Got the Money (by Lefty Frissell)
TTITLE7=My Uncle (by Steve Earle)
TTITLE8=More pretty Girls (Traditional)
TTITLE9=Dead Flowers (by Mick Jagger and Keith Richards)
TTITLE10=That's Alright Mama (by Arthur Crudup)
TTITLE11=Southern Accent (by Tom Petty)
TTITLE12=Kathy Hill (Traditional)
TTITLE13=Keep on the Sunny Side (Traditional)
TTITLE14=Darlin' Corey (Traditional)
EXTD=
EXTT0=
EXTT1=
EXTT2=
EXTT3=
EXTT4=
EXTT5=
EXTT6=
EXTT7=
EXTT8=
EXTT9=
EXTT10=
EXTT11=
EXTT12=
EXTT13=
EXTT14=
PLAYORDER=
